<?xml version="1.0" encoding="UTF-8"?>
<svg width="180px" height="180px" viewBox="0 0 180 180" version="1.1" xmlns="http://www.w3.org/2000/svg" xmlns:xlink="http://www.w3.org/1999/xlink">
    <title>img / status / maintaince</title>
    <defs>
        <filter x="-5.4%" y="-5.3%" width="111.6%" height="109.8%" filterUnits="objectBoundingBox" id="filter-1">
            <feOffset dx="2" dy="2" in="SourceAlpha" result="shadowOffsetOuter1"></feOffset>
            <feColorMatrix values="0 0 0 0 0.137254902   0 0 0 0 0.337254902   0 0 0 0 0.615686275  0 0 0 0.5 0" type="matrix" in="shadowOffsetOuter1" result="shadowMatrixOuter1"></feColorMatrix>
            <feMerge>
                <feMergeNode in="shadowMatrixOuter1"></feMergeNode>
                <feMergeNode in="SourceGraphic"></feMergeNode>
            </feMerge>
        </filter>
        <path d="M50.902152,95.8995529 C52.3882574,95.8995529 53.6836573,96.9109705 54.0440908,98.3527045 L55.2384481,103.126071 C56.9265328,103.576495 58.5253268,104.245635 60.0026206,105.101283 L64.2226115,102.568786 C65.4969364,101.804191 67.1281027,102.004997 68.1789379,103.055832 L69.2432738,104.120168 C70.2941091,105.171003 70.4949148,106.802169 69.7303199,108.076494 L67.1978225,112.296485 C68.0534705,113.773779 68.722611,115.372573 69.1730349,117.060658 L73.9464012,118.255015 C75.3881352,118.615448 76.3995529,119.910848 76.3995529,121.396954 L76.3995529,122.902152 C76.3995529,124.388257 75.3881352,125.683657 73.9464012,126.044091 L69.1730349,127.238448 C68.722611,128.926533 68.0534705,130.525327 67.1978225,132.002621 L69.7303199,136.222612 C70.4949148,137.496936 70.2941091,139.128103 69.2432738,140.178938 L68.1789379,141.243274 C67.1281027,142.294109 65.4969364,142.494915 64.2226115,141.73032 L60.0026206,139.197822 C58.5253268,140.05347 56.9265328,140.722611 55.2384481,141.173035 L54.0440908,145.946401 C53.6836573,147.388135 52.3882574,148.399553 50.902152,148.399553 L49.3969537,148.399553 C47.9108483,148.399553 46.6154485,147.388135 46.255015,145.946401 L45.0606577,141.173035 C43.3725729,140.722611 41.773779,140.05347 40.2964852,139.197822 L36.0764942,141.73032 C34.8021693,142.494915 33.1710031,142.294109 32.1201678,141.243274 L31.0558319,140.178938 C30.0049967,139.128103 29.8041909,137.496936 30.5687859,136.222612 L33.1012833,132.002621 C32.2456353,130.525327 31.5764947,128.926533 31.1260709,127.238448 L26.3527045,126.044091 C24.9109705,125.683657 23.8995529,124.388257 23.8995529,122.902152 L23.8995529,121.396954 C23.8995529,119.910848 24.9109705,118.615448 26.3527045,118.255015 L31.1260709,117.060658 C31.5764947,115.372573 32.2456353,113.773779 33.1012833,112.296485 L30.5687859,108.076494 C29.8041909,106.802169 30.0049967,105.171003 31.0558319,104.120168 L32.1201678,103.055832 C33.1710031,102.004997 34.8021693,101.804191 36.0764942,102.568786 L40.2964852,105.101283 C41.773779,104.245635 43.3725729,103.576495 45.0606577,103.126071 L46.255015,98.3527045 C46.6154485,96.9109705 47.9108483,95.8995529 49.3969537,95.8995529 L50.902152,95.8995529 Z M50.1495529,112.305803 C44.7129999,112.305803 40.3058029,116.713 40.3058029,122.149553 C40.3058029,127.586106 44.7129999,131.993303 50.1495529,131.993303 C55.5861059,131.993303 59.9933029,127.586106 59.9933029,122.149553 C59.9933029,116.713 55.5861059,112.305803 50.1495529,112.305803 Z" id="path-2"></path>
        <filter x="-6.4%" y="-6.4%" width="116.7%" height="118.6%" filterUnits="objectBoundingBox" id="filter-3">
            <feMorphology radius="1.875" operator="dilate" in="SourceAlpha" result="shadowSpreadOuter1"></feMorphology>
            <feOffset dx="2" dy="3" in="shadowSpreadOuter1" result="shadowOffsetOuter1"></feOffset>
            <feMorphology radius="1.875" operator="erode" in="SourceAlpha" result="shadowInner"></feMorphology>
            <feOffset dx="2" dy="3" in="shadowInner" result="shadowInner"></feOffset>
            <feComposite in="shadowOffsetOuter1" in2="shadowInner" operator="out" result="shadowOffsetOuter1"></feComposite>
            <feColorMatrix values="0 0 0 0 0.137254902   0 0 0 0 0.337254902   0 0 0 0 0.615686275  0 0 0 0.5 0" type="matrix" in="shadowOffsetOuter1"></feColorMatrix>
        </filter>
    </defs>
    <g id="UI-Component" stroke="none" stroke-width="1" fill="none" fill-rule="evenodd">
        <g id="UI-Component---images" transform="translate(-45.000000, -240.000000)">
            <g id="main" transform="translate(45.000000, 240.000000)">
                <circle id="Oval" fill="#D2E5F6" cx="90" cy="90" r="90"></circle>
                <ellipse id="Oval" fill="#BBCDDD" cx="89.85" cy="151.35" rx="37.5" ry="3.6"></ellipse>
                <g id="tools" filter="url(#filter-1)" transform="translate(56.000000, 23.500000)" stroke="#23569D">
                    <g id="板手" transform="translate(73.790091, 79.753731) rotate(20.000000) translate(-73.790091, -79.753731) translate(50.790091, 32.253731)">
                        <path d="M14.2218726,-3.17712775e-05 L14.2210559,18.2558198 C14.2210559,19.8266342 15.4944526,21.100031 17.0652671,21.100031 L17.0652671,21.100031 L28.4421118,21.100031 C30.0129262,21.100031 31.286323,19.8266342 31.286323,18.2558198 L31.286323,18.2558198 L31.2865099,0.000374498818 C39.6251555,3.37585903 45.5073789,11.5510116 45.5073789,21.100031 C45.5073789,33.6665466 35.3202051,43.8537204 22.7536894,43.8537204 C10.1871738,43.8537204 1.02318154e-12,33.6665466 1.02318154e-12,21.100031 C1.02318154e-12,11.5506284 5.88269538,3.37520302 14.2218726,-3.17712775e-05 Z" id="Combined-Shape" stroke-width="4.5" stroke-linejoin="round"></path>
                        <path d="M18.3733761,43.8537204 L27.1340028,43.8537204 C27.8734502,43.8537204 28.4895166,44.4204026 28.5511585,45.1572763 L31.8785806,84.9336305 C32.3001544,89.9731687 28.5565546,94.4002748 23.5170164,94.8218487 C23.2631283,94.8430872 23.0084643,94.8537204 22.7536894,94.8537204 C17.6965489,94.8537204 13.5969265,90.754098 13.5969265,85.6969575 C13.5969265,85.4421826 13.6075597,85.1875186 13.6287983,84.9336305 L16.9562204,45.1572763 C17.0178622,44.4204026 17.6339286,43.8537204 18.3733761,43.8537204 Z" id="Rectangle" stroke-width="4.5"></path>
                        <circle id="Oval" stroke-width="2.25" cx="22.7536894" cy="84.0821551" r="2.84421118"></circle>
                    </g>
                    <g id="螺絲起子" transform="translate(24.861463, 44.147294) rotate(162.000000) translate(-24.861463, -44.147294) translate(13.361463, 1.647294)">
                        <rect id="Rectangle" stroke-width="4.5" x="0" y="0" width="22.5" height="43.5" rx="7.11052795"></rect>
                        <path d="M15.375,43.5 L15.375,68.598 L19.5,70.6435407 L17.1428571,84.5526316 L5.35714286,84.5526316 L3,70.6435407 L7.125,68.598 L7.125,43.5 L15.375,43.5 Z" id="Combined-Shape" stroke-width="4.5"></path>
                        <line x1="8.25" y1="9" x2="8.25" y2="30" id="Path-22" stroke-width="2.25" stroke-linecap="round" stroke-linejoin="round"></line>
                        <line x1="14.25" y1="9" x2="14.25" y2="30" id="Path-22" stroke-width="2.25" stroke-linecap="round" stroke-linejoin="round"></line>
                    </g>
                </g>
                <g id="gear" transform="translate(50.149553, 122.149553) rotate(-15.000000) translate(-50.149553, -122.149553) ">
                    <use fill="black" fill-opacity="1" filter="url(#filter-3)" xlink:href="#path-2"></use>
                    <use stroke="#23569D" stroke-width="3.75" xlink:href="#path-2"></use>
                </g>
                <path d="M114.445312,31.5161133 L92.6953125,31.5161133 M125.695312,31.5161133 L119.695312,31.5161133 M121.945312,37.5161133 L100.195312,37.5161133 M133.195312,37.5161133 L127.195312,37.5161133 M135.445312,43.5161133 L113.695312,43.5161133 M146.695312,43.5161133 L140.695312,43.5161133 M44.203125,86.1723633 L65.953125,86.1723633 M32.953125,86.1723633 L38.953125,86.1723633 M36.703125,80.1723633 L58.453125,80.1723633 M25.453125,80.1723633 L31.453125,80.1723633 M23.203125,74.1723633 L44.953125,74.1723633 M11.953125,74.1723633 L17.953125,74.1723633 M153.75,124.5 L145.5,124.5 M161.25,124.5 L158.25,124.5 M149.25,130.5 L141,130.5 M156.75,130.5 L153.75,130.5" id="deco" stroke="#23569D" stroke-width="2.25" opacity="0.5" stroke-linecap="round"></path>
            </g>
        </g>
    </g>
</svg>