<svg xmlns="http://www.w3.org/2000/svg" width="180" height="180" viewBox="0 0 180 180">
    <defs>
        <filter id="d569n8v7ea" width="115.3%" height="114.4%" x="-7.6%" y="-7.2%" filterUnits="objectBoundingBox">
            <feOffset dx="3" in="SourceAlpha" result="shadowOffsetOuter1"/>
            <feColorMatrix in="shadowOffsetOuter1" result="shadowMatrixOuter1" values="0 0 0 0 0.137254902 0 0 0 0 0.337254902 0 0 0 0 0.615686275 0 0 0 0.5 0"/>
            <feMerge>
                <feMergeNode in="shadowMatrixOuter1"/>
                <feMergeNode in="SourceGraphic"/>
            </feMerge>
        </filter>
    </defs>
    <g fill="none" fill-rule="evenodd">
        <g>
            <g transform="translate(-290 -532) translate(290 532)">
                <circle cx="90" cy="90" r="90" fill="#D2E5F6"/>
                <g transform="translate(21 34)">
                    <ellipse cx="69.3" cy="102.614" fill="#BBCDDD" rx="69.3" ry="3.6"/>
                    <g stroke="#23569D" stroke-width="3.6">
                        <path d="M69.525 2.25c9.755 0 18.586 3.954 24.979 10.346 6.392 6.393 10.346 15.224 10.346 24.979 0 9.755-3.954 18.586-10.346 24.979C88.11 68.946 79.28 72.9 69.525 72.9c-2.009 0-3.979-.168-5.896-.49h0l-4.528 15.796c-.136.472-.419.87-.791 1.151-.372.28-.833.443-1.324.443h0H6c-1.16 0-2.21-.47-2.97-1.23-.76-.76-1.23-1.81-1.23-2.97h0v-40c0-1.16.47-2.21 1.23-2.97.76-.76 1.81-1.23 2.97-1.23h15.36l8.001 6.5h6.371c-.996-3.266-1.532-6.733-1.532-10.325 0-9.755 3.954-18.586 10.346-24.979C50.94 6.204 59.77 2.25 69.525 2.25z" transform="translate(3.6 10.814)"/>
                    </g>
                    <g fill="#23569D">
                        <g fill-rule="nonzero" filter="url(#d569n8v7ea)" transform="translate(36 10.814) translate(0 .45)">
                            <path d="M37.125 0C57.629 0 74.25 16.621 74.25 37.125S57.629 74.25 37.125 74.25c-1.557 0-3.092-.096-4.599-.282l1.51-5.266c1.017.098 2.047.148 3.089.148 17.521 0 31.725-14.204 31.725-31.725S54.646 5.4 37.125 5.4 5.4 19.604 5.4 37.125c0 6.695 2.074 12.906 5.615 18.025H4.66C1.691 49.812 0 43.666 0 37.125 0 16.621 16.621 0 37.125 0z"/>
                            <path d="M57.49 62.44c.99-.988 2.554-1.05 3.614-.185l.205.186 22.275 22.275c1.055 1.054 1.055 2.764 0 3.818-.988.989-2.553 1.05-3.613.186l-.205-.186L57.49 66.26c-1.055-1.054-1.055-2.764 0-3.818z"/>
                        </g>
                        <g opacity=".9">
                            <path d="M3.628 7.92c-1.02 0-1.88-.356-2.58-1.069C.35 6.14 0 5.295 0 4.32c0-.975.35-1.819 1.049-2.531C1.748 1.076 2.608.72 3.629.72c.982 0 1.823.356 2.522 1.069C6.851 2.5 7.2 3.345 7.2 4.32c0 .975-.35 1.819-1.049 2.531-.699.713-1.54 1.069-2.523 1.069zM21.628 7.92c-1.02 0-1.88-.356-2.58-1.069C18.35 6.14 18 5.295 18 4.32c0-.975.35-1.819 1.049-2.531.699-.713 1.559-1.069 2.58-1.069.982 0 1.823.356 2.522 1.069.7.712 1.049 1.556 1.049 2.531 0 .975-.35 1.819-1.049 2.531-.699.713-1.54 1.069-2.523 1.069z" transform="translate(36 10.814) translate(14.4 23.4)"/>
                            <path fill-rule="nonzero" d="M12.606 27c-1.703 0-3.156-.802-4.255-2.296-1.026-1.395-1.54-3.044-1.54-4.904 0-1.86.514-3.51 1.54-4.904 1.1-1.494 2.552-2.296 4.255-2.296 1.664 0 3.09.806 4.187 2.296 1.026 1.395 1.539 3.044 1.539 4.904 0 1.86-.513 3.51-1.539 4.904C15.696 26.194 14.27 27 12.606 27z" transform="translate(36 10.814) translate(14.4 23.4)"/>
                        </g>
                    </g>
                    <path stroke="#23569D" stroke-width="3.6" d="M68.614 68.214c.608 0 1.158.246 1.556.645.398.398.644.948.644 1.555 0 .205-.028.41-.085.607h0l-8.028 28c-.136.471-.419.87-.791 1.15-.372.28-.833.443-1.324.443h0-49.678c-.607 0-1.157-.246-1.555-.644-.399-.398-.645-.948-.645-1.556 0-.205.029-.409.085-.606h0l8.029-28c.135-.472.419-.87.79-1.15.373-.281.834-.444 1.325-.444h0z"/>
                    <g stroke="#23569D" stroke-width="1.8" transform="translate(27.039 12.614)">
                        <path d="M31.577 67.654c0 7.953 9.268 14.4 20.7 14.4 11.432 0 20.7-6.447 20.7-14.4" transform="rotate(-22 52.277 74.854)"/>
                        <path d="M-10.8 18.395c0 7.953 9.268 14.4 20.7 14.4 8.796 0 16.31-3.817 19.309-9.2" transform="rotate(86 9.204 25.595)"/>
                        <circle cx="27.861" cy="72.9" r="4.5"/>
                        <circle cx="18.861" cy="4.5" r="4.5"/>
                    </g>
                    <g stroke="#23569D" stroke-linecap="round" stroke-width="1.8">
                        <path d="M7.104 12.897L15.407 7.505" transform="translate(104.921) rotate(-2 11.255 10.201)"/>
                        <path d="M3.551 0L0 7.28M11.249 21.113L18.907 18.476" transform="translate(104.921)"/>
                    </g>
                </g>
            </g>
        </g>
    </g>
</svg>
