<svg xmlns="http://www.w3.org/2000/svg" width="120" height="120" viewBox="0 0 120 120">
    <defs>
        <filter id="67yc548c7a" width="114%" height="113.3%" x="-7%" y="-6.7%" filterUnits="objectBoundingBox">
            <feOffset dx="2" in="SourceAlpha" result="shadowOffsetOuter1"/>
            <feColorMatrix in="shadowOffsetOuter1" result="shadowMatrixOuter1" values="0 0 0 0 0.137254902 0 0 0 0 0.337254902 0 0 0 0 0.615686275 0 0 0 0.5 0"/>
            <feMerge>
                <feMergeNode in="shadowMatrixOuter1"/>
                <feMergeNode in="SourceGraphic"/>
            </feMerge>
        </filter>
    </defs>
    <g fill="none" fill-rule="evenodd">
        <g>
            <g transform="translate(-120 -259) translate(120 259)">
                <circle cx="60" cy="60" r="60" fill="#D2E5F6"/>
                <g transform="translate(14 22.667)">
                    <ellipse cx="46.2" cy="68.409" fill="#BBCDDD" rx="46.2" ry="2.4"/>
                    <g stroke="#23569D" stroke-width="2.4">
                        <path d="M46.35 1.5c6.503 0 12.39 2.636 16.652 6.898C67.264 12.659 69.9 18.547 69.9 25.05c0 6.503-2.636 12.39-6.898 16.652C58.741 45.964 52.853 48.6 46.35 48.6c-1.34 0-2.652-.112-3.93-.326h0l-3.02 10.53c-.09.315-.279.58-.527.767-.248.187-.555.296-.882.296h0H4c-.773 0-1.473-.314-1.98-.82-.507-.507-.82-1.207-.82-1.98h0V30.4c0-.773.313-1.473.82-1.98.507-.507 1.207-.82 1.98-.82h10.24l5.334 4.333 4.248.001c-.665-2.177-1.022-4.489-1.022-6.884 0-6.503 2.636-12.39 6.898-16.652C33.959 4.136 39.847 1.5 46.35 1.5z" transform="translate(2.4 7.21)"/>
                    </g>
                    <g fill="#23569D">
                        <g fill-rule="nonzero" filter="url(#67yc548c7a)" transform="translate(24 7.21) translate(0 .3)">
                            <path d="M24.75 0C38.419 0 49.5 11.081 49.5 24.75S38.419 49.5 24.75 49.5c-1.038 0-2.061-.064-3.066-.188l1.008-3.51c.677.065 1.364.098 2.058.098 11.68 0 21.15-9.47 21.15-21.15 0-11.68-9.47-21.15-21.15-21.15C13.07 3.6 3.6 13.07 3.6 24.75c0 4.464 1.383 8.604 3.743 12.017H3.108C1.128 33.209 0 29.111 0 24.75 0 11.081 11.081 0 24.75 0z"/>
                            <path d="M38.327 41.627c.66-.659 1.702-.7 2.41-.123l.136.123 14.85 14.85c.703.703.703 1.843 0 2.546-.66.659-1.702.7-2.41.123l-.136-.123-14.85-14.85c-.703-.703-.703-1.843 0-2.546z"/>
                        </g>
                        <g opacity=".9">
                            <path d="M2.419 5.28c-.68 0-1.254-.237-1.72-.713C.233 4.093 0 3.53 0 2.88c0-.65.233-1.212.7-1.688C1.164.717 1.738.48 2.418.48c.655 0 1.216.237 1.682.712.466.476.699 1.038.699 1.688 0 .65-.233 1.212-.7 1.688-.465.475-1.026.712-1.681.712zM14.419 5.28c-.68 0-1.254-.237-1.72-.713C12.233 4.093 12 3.53 12 2.88c0-.65.233-1.212.7-1.688.465-.475 1.039-.712 1.719-.712.655 0 1.216.237 1.682.712.466.476.699 1.038.699 1.688 0 .65-.233 1.212-.7 1.688-.465.475-1.026.712-1.681.712z" transform="translate(24 7.21) translate(9.6 15.6)"/>
                            <path fill-rule="nonzero" d="M8.404 18c-1.136 0-2.104-.535-2.837-1.53-.684-.93-1.026-2.03-1.026-3.27 0-1.24.342-2.34 1.026-3.27C6.3 8.936 7.268 8.4 8.404 8.4c1.11 0 2.06.537 2.791 1.53.684.93 1.026 2.03 1.026 3.27 0 1.24-.342 2.34-1.026 3.27-.731.993-1.682 1.53-2.791 1.53z" transform="translate(24 7.21) translate(9.6 15.6)"/>
                        </g>
                    </g>
                    <path stroke="#23569D" stroke-width="2.4" d="M45.743 45.476c.405 0 .772.164 1.037.43.265.265.43.632.43 1.037h0l-5.41 19.07c-.09.315-.279.58-.527.768-.248.187-.555.295-.882.295h0H7.272c-.405 0-.772-.164-1.037-.43-.265-.265-.43-.632-.43-1.037h0l5.41-19.07c.09-.315.279-.58.527-.768.248-.187.555-.295.883-.295h0z"/>
                    <g stroke="#23569D" stroke-width="1.2" transform="translate(18.026 8.41)">
                        <path d="M21.051 45.102c0 5.302 6.179 9.6 13.8 9.6 7.622 0 13.8-4.298 13.8-9.6" transform="rotate(-22 34.851 49.902)"/>
                        <path d="M-7.2 12.263c0 5.302 6.178 9.6 13.8 9.6 5.864 0 10.874-2.544 12.873-6.133" transform="rotate(86 6.136 17.063)"/>
                        <circle cx="18.574" cy="48.6" r="3"/>
                        <circle cx="12.574" cy="3" r="3"/>
                    </g>
                    <g stroke="#23569D" stroke-linecap="round" stroke-width="1.2">
                        <path d="M4.736 8.598L10.271 5.004" transform="translate(69.948) rotate(-2 7.503 6.8)"/>
                        <path d="M2.367 0L0 4.853M7.499 14.075L12.605 12.317" transform="translate(69.948)"/>
                    </g>
                </g>
                <g>
                    <circle cx="60" cy="60" r="60" fill="#D2E5F6"/>
                    <g fill="#23569D">
                        <path d="M6.188 8.387c-1.16 0-2.138-.408-2.933-1.224-.795-.817-1.192-1.783-1.192-2.9 0-1.118.397-2.084 1.192-2.9C4.05.545 5.027.136 6.188.136c1.117 0 2.073.409 2.868 1.225.795.817 1.192 1.783 1.192 2.9 0 1.118-.397 2.084-1.192 2.9-.795.817-1.751 1.225-2.868 1.225zM26.813 8.387c-1.16 0-2.138-.408-2.933-1.224-.795-.817-1.192-1.783-1.192-2.9 0-1.118.397-2.084 1.192-2.9.795-.817 1.772-1.226 2.933-1.226 1.117 0 2.073.409 2.868 1.225.795.817 1.192 1.783 1.192 2.9 0 1.118-.397 2.084-1.192 2.9-.795.817-1.751 1.225-2.869 1.225z" transform="translate(43.833 49.883)"/>
                        <path d="M31.9 26.818c.456-.202.78-.503.97-.906.19-.402.172-.804-.057-1.207-.038-.1-.362-.637-.971-1.61-.61-.972-1.57-2.02-2.885-3.143-1.314-1.123-2.999-2.154-5.055-3.093-2.057-.94-4.55-1.409-7.483-1.409-.038 0-.076-.008-.114-.025-.039-.017-.077-.025-.115-.025-2.78 0-5.17.47-7.169 1.408-1.999.94-3.646 1.97-4.94 3.094-1.296 1.123-2.257 2.18-2.885 3.168-.629.99-.962 1.518-1 1.585-.229.436-.257.855-.086 1.257.172.403.505.704 1 .906.457.167.914.176 1.37.025.458-.151.8-.428 1.029-.83.038-.067.314-.495.828-1.283.514-.788 1.286-1.626 2.314-2.515 1.028-.888 2.332-1.71 3.913-2.464 1.58-.755 3.475-1.132 5.683-1.132.096.042.134.05.172.05 2.323 0 4.313.386 5.97 1.157 1.656.771 3.008 1.61 4.055 2.515 1.047.905 1.818 1.735 2.313 2.49.495.754.743 1.148.743 1.182.19.402.524.679 1 .83.476.15.942.142 1.4-.025z" transform="translate(43.833 49.883) matrix(1 0 0 -1 0 42.35)"/>
                    </g>
                </g>
            </g>
        </g>
    </g>
</svg>
